<?xml version="1.0" encoding="UTF-8" standalone="no"?>
<svg
   xmlns:osb="http://www.openswatchbook.org/uri/2009/osb"
   xmlns:dc="http://purl.org/dc/elements/1.1/"
   xmlns:cc="http://creativecommons.org/ns#"
   xmlns:rdf="http://www.w3.org/1999/02/22-rdf-syntax-ns#"
   xmlns:svg="http://www.w3.org/2000/svg"
   xmlns="http://www.w3.org/2000/svg"
   xmlns:xlink="http://www.w3.org/1999/xlink"
   xmlns:sodipodi="http://sodipodi.sourceforge.net/DTD/sodipodi-0.dtd"
   xmlns:inkscape="http://www.inkscape.org/namespaces/inkscape"
   version="1.1"
   id="Layer_1"
   inkscape:version="0.91 r13725"
   sodipodi:docname="USA1.svg"
   x="0px"
   y="0px"
   viewBox="-141 107.4 921.5 581.4"
   style="enable-background:new -141 107.4 921.5 581.4;"
   xml:space="preserve"
   width="921.5"
   height="581.4000244140625"><metadata
     id="metadata58"><rdf:RDF><cc:Work
         rdf:about=""><dc:format>image/svg+xml</dc:format><dc:type
           rdf:resource="http://purl.org/dc/dcmitype/StillImage" /><dc:title></dc:title></cc:Work></rdf:RDF></metadata><defs
     id="defs56"><linearGradient
       id="linearGradient4186"
       osb:paint="solid"><stop
         style="stop-color:#000000;stop-opacity:0;"
         offset="0"
         id="stop4188" /></linearGradient><linearGradient
       inkscape:collect="always"
       xlink:href="#linearGradient4186"
       id="linearGradient4190"
       x1="652.7"
       y1="351.8"
       x2="656"
       y2="351.8"
       gradientUnits="userSpaceOnUse" /><linearGradient
       inkscape:collect="always"
       xlink:href="#linearGradient4186"
       id="linearGradient4192"
       x1="554.7"
       y1="382.25"
       x2="688.3"
       y2="382.25"
       gradientUnits="userSpaceOnUse" /><linearGradient
       inkscape:collect="always"
       xlink:href="#linearGradient4186"
       id="linearGradient4194"
       x1="370"
       y1="556.2"
       x2="468.2"
       y2="556.2"
       gradientUnits="userSpaceOnUse" /><linearGradient
       inkscape:collect="always"
       xlink:href="#linearGradient4186"
       id="linearGradient4196"
       x1="228.5"
       y1="391"
       x2="357"
       y2="391"
       gradientUnits="userSpaceOnUse" /><linearGradient
       inkscape:collect="always"
       xlink:href="#linearGradient4186"
       id="linearGradient4198"
       x1="210.8"
       y1="461"
       x2="360.2"
       y2="461"
       gradientUnits="userSpaceOnUse" /><linearGradient
       inkscape:collect="always"
       xlink:href="#linearGradient4186"
       id="linearGradient4200"
       x1="358"
       y1="473.6"
       x2="444"
       y2="473.6"
       gradientUnits="userSpaceOnUse" /><linearGradient
       inkscape:collect="always"
       xlink:href="#linearGradient4186"
       id="linearGradient4202"
       x1="338.5"
       y1="394.55"
       x2="453.6"
       y2="394.55"
       gradientUnits="userSpaceOnUse" /><linearGradient
       inkscape:collect="always"
       xlink:href="#linearGradient4186"
       id="linearGradient4204"
       x1="382.4"
       y1="251.95"
       x2="473.8"
       y2="251.95"
       gradientUnits="userSpaceOnUse" /><linearGradient
       inkscape:collect="always"
       xlink:href="#linearGradient4186"
       id="linearGradient4206"
       x1="315.8"
       y1="216.55"
       x2="430.3"
       y2="216.55"
       gradientUnits="userSpaceOnUse" /><linearGradient
       inkscape:collect="always"
       xlink:href="#linearGradient4186"
       id="linearGradient4208"
       x1="408.7"
       y1="360.15"
       x2="477.9"
       y2="360.15"
       gradientUnits="userSpaceOnUse" /><linearGradient
       inkscape:collect="always"
       xlink:href="#linearGradient4186"
       id="linearGradient4210"
       x1="471.4"
       y1="355.6"
       x2="523.3"
       y2="355.6"
       gradientUnits="userSpaceOnUse" /><linearGradient
       inkscape:collect="always"
       xlink:href="#linearGradient4186"
       id="linearGradient4212"
       x1="416.3"
       y1="519.05"
       x2="477.6"
       y2="519.05"
       gradientUnits="userSpaceOnUse" /><linearGradient
       inkscape:collect="always"
       xlink:href="#linearGradient4186"
       id="linearGradient4214"
       x1="323.9"
       y1="314.6"
       x2="428.1"
       y2="314.6"
       gradientUnits="userSpaceOnUse" /><linearGradient
       inkscape:collect="always"
       xlink:href="#linearGradient4186"
       id="linearGradient4216"
       x1="201"
       y1="323.3"
       x2="343.8"
       y2="323.3"
       gradientUnits="userSpaceOnUse" /><linearGradient
       inkscape:collect="always"
       xlink:href="#linearGradient4186"
       id="linearGradient4218"
       x1="205.2"
       y1="263.2"
       x2="326.3"
       y2="263.2"
       gradientUnits="userSpaceOnUse" /><linearGradient
       inkscape:collect="always"
       xlink:href="#linearGradient4186"
       id="linearGradient4220"
       x1="210.7"
       y1="192.3"
       x2="324.3"
       y2="192.3"
       gradientUnits="userSpaceOnUse" /><linearGradient
       inkscape:collect="always"
       xlink:href="#linearGradient4186"
       id="linearGradient4222"
       x1="-120.8"
       y1="218.55"
       x2="19.1"
       y2="218.55"
       gradientUnits="userSpaceOnUse" /><linearGradient
       inkscape:collect="always"
       xlink:href="#linearGradient4186"
       id="linearGradient4224"
       x1="89.7"
       y1="473.7"
       x2="210.3"
       y2="473.7"
       gradientUnits="userSpaceOnUse" /><linearGradient
       inkscape:collect="always"
       xlink:href="#linearGradient4186"
       id="linearGradient4226"
       x1="107"
       y1="372.4"
       x2="233"
       y2="372.4"
       gradientUnits="userSpaceOnUse" /><linearGradient
       inkscape:collect="always"
       xlink:href="#linearGradient4186"
       id="linearGradient4228"
       x1="21"
       y1="348.6"
       x2="117.1"
       y2="348.6"
       gradientUnits="userSpaceOnUse" /><linearGradient
       inkscape:collect="always"
       xlink:href="#linearGradient4186"
       id="linearGradient4230"
       x1="-69.8"
       y1="351.7"
       x2="40.3"
       y2="351.7"
       gradientUnits="userSpaceOnUse" /><linearGradient
       inkscape:collect="always"
       xlink:href="#linearGradient4186"
       id="linearGradient4232"
       x1="-12.2"
       y1="465.05"
       x2="105.8"
       y2="465.05"
       gradientUnits="userSpaceOnUse" /><linearGradient
       inkscape:collect="always"
       xlink:href="#linearGradient4186"
       id="linearGradient4234"
       x1="-133.2"
       y1="367.5"
       x2="6.4"
       y2="367.5"
       gradientUnits="userSpaceOnUse" /><linearGradient
       inkscape:collect="always"
       xlink:href="#linearGradient4186"
       id="linearGradient4236"
       x1="135.6"
       y1="552.4"
       x2="378.8"
       y2="552.4"
       gradientUnits="userSpaceOnUse" /><linearGradient
       inkscape:collect="always"
       xlink:href="#linearGradient4186"
       id="linearGradient4238"
       x1="-88.0762"
       y1="148.41911"
       x2="26.827906"
       y2="148.41911"
       gradientUnits="userSpaceOnUse" /><linearGradient
       inkscape:collect="always"
       xlink:href="#linearGradient4186"
       id="linearGradient4240"
       x1="-6"
       y1="211.2"
       x2="97.7"
       y2="211.2"
       gradientUnits="userSpaceOnUse" /><linearGradient
       inkscape:collect="always"
       xlink:href="#linearGradient4186"
       id="linearGradient4242"
       x1="37.8"
       y1="186.75"
       x2="214.9"
       y2="186.75"
       gradientUnits="userSpaceOnUse" /><linearGradient
       inkscape:collect="always"
       xlink:href="#linearGradient4186"
       id="linearGradient4244"
       x1="86.4"
       y1="281"
       x2="207.3"
       y2="281"
       gradientUnits="userSpaceOnUse" /><linearGradient
       inkscape:collect="always"
       xlink:href="#linearGradient4186"
       id="linearGradient4246"
       x1="420.5"
       y1="243.35"
       x2="551.3"
       y2="243.35"
       gradientUnits="userSpaceOnUse" /><linearGradient
       inkscape:collect="always"
       xlink:href="#linearGradient4186"
       id="linearGradient4248"
       x1="516.8"
       y1="336.1"
       x2="588.8"
       y2="336.1"
       gradientUnits="userSpaceOnUse" /><linearGradient
       inkscape:collect="always"
       xlink:href="#linearGradient4186"
       id="linearGradient4250"
       x1="447.1"
       y1="399.95"
       x2="574.8"
       y2="399.95"
       gradientUnits="userSpaceOnUse" /><linearGradient
       inkscape:collect="always"
       xlink:href="#linearGradient4186"
       id="linearGradient4252"
       x1="562.9"
       y1="363.3"
       x2="640.8"
       y2="363.3"
       gradientUnits="userSpaceOnUse" /><linearGradient
       inkscape:collect="always"
       xlink:href="#linearGradient4186"
       id="linearGradient4254"
       x1="610.7"
       y1="350.2"
       x2="690"
       y2="350.2"
       gradientUnits="userSpaceOnUse" /><linearGradient
       inkscape:collect="always"
       xlink:href="#linearGradient4186"
       id="linearGradient4256"
       x1="671.1"
       y1="341.5"
       x2="689.7"
       y2="341.5"
       gradientUnits="userSpaceOnUse" /><linearGradient
       inkscape:collect="always"
       xlink:href="#linearGradient4186"
       id="linearGradient4258"
       x1="585.4"
       y1="311.35"
       x2="684.9"
       y2="311.35"
       gradientUnits="userSpaceOnUse" /><linearGradient
       inkscape:collect="always"
       xlink:href="#linearGradient4186"
       id="linearGradient4260"
       x1="675.8"
       y1="317.1"
       x2="699.3"
       y2="317.1"
       gradientUnits="userSpaceOnUse" /><linearGradient
       inkscape:collect="always"
       xlink:href="#linearGradient4186"
       id="linearGradient4262"
       x1="597.5"
       y1="255.55"
       x2="724.2"
       y2="255.55"
       gradientUnits="userSpaceOnUse" /><linearGradient
       inkscape:collect="always"
       xlink:href="#linearGradient4186"
       id="linearGradient4264"
       x1="684.9"
       y1="226.65"
       x2="713.3"
       y2="226.65"
       gradientUnits="userSpaceOnUse" /><linearGradient
       inkscape:collect="always"
       xlink:href="#linearGradient4186"
       id="linearGradient4266"
       x1="708"
       y1="222.1"
       x2="735.8"
       y2="222.1"
       gradientUnits="userSpaceOnUse" /><linearGradient
       inkscape:collect="always"
       xlink:href="#linearGradient4186"
       id="linearGradient4268"
       x1="717.4"
       y1="187"
       x2="780.4"
       y2="187"
       gradientUnits="userSpaceOnUse" /><linearGradient
       inkscape:collect="always"
       xlink:href="#linearGradient4186"
       id="linearGradient4270"
       x1="696.4"
       y1="259.3"
       x2="757.7"
       y2="259.3"
       gradientUnits="userSpaceOnUse" /><linearGradient
       inkscape:collect="always"
       xlink:href="#linearGradient4186"
       id="linearGradient4272"
       x1="697.2"
       y1="279.9"
       x2="726.2"
       y2="279.9"
       gradientUnits="userSpaceOnUse" /><linearGradient
       inkscape:collect="always"
       xlink:href="#linearGradient4186"
       id="linearGradient4274"
       x1="724.1"
       y1="271.8"
       x2="737.7"
       y2="271.8"
       gradientUnits="userSpaceOnUse" /><linearGradient
       inkscape:collect="always"
       xlink:href="#linearGradient4186"
       id="linearGradient4276"
       x1="437.9"
       y1="441"
       x2="583.7"
       y2="441"
       gradientUnits="userSpaceOnUse" /><linearGradient
       inkscape:collect="always"
       xlink:href="#linearGradient4186"
       id="linearGradient4278"
       x1="542.4"
       y1="432.15"
       x2="697.6"
       y2="432.15"
       gradientUnits="userSpaceOnUse" /><linearGradient
       inkscape:collect="always"
       xlink:href="#linearGradient4186"
       id="linearGradient4280"
       x1="474.3"
       y1="515.1"
       x2="539.9"
       y2="515.1"
       gradientUnits="userSpaceOnUse" /><linearGradient
       inkscape:collect="always"
       xlink:href="#linearGradient4186"
       id="linearGradient4282"
       x1="520.8"
       y1="504.85"
       x2="614.1"
       y2="504.85"
       gradientUnits="userSpaceOnUse" /><linearGradient
       inkscape:collect="always"
       xlink:href="#linearGradient4186"
       id="linearGradient4284"
       x1="561"
       y1="480.4"
       x2="649.3"
       y2="480.4"
       gradientUnits="userSpaceOnUse" /><linearGradient
       inkscape:collect="always"
       xlink:href="#linearGradient4186"
       id="linearGradient4286"
       x1="491.7"
       y1="611.85"
       x2="651"
       y2="611.85"
       gradientUnits="userSpaceOnUse" /><linearGradient
       inkscape:collect="always"
       xlink:href="#linearGradient4186"
       id="linearGradient4288"
       x1="-141"
       y1="611.1"
       x2="68.1"
       y2="611.1"
       gradientUnits="userSpaceOnUse" /><linearGradient
       inkscape:collect="always"
       xlink:href="#linearGradient4186"
       id="linearGradient4290"
       x1="86.1"
       y1="646.45"
       x2="199.6"
       y2="646.45"
       gradientUnits="userSpaceOnUse" /></defs><sodipodi:namedview
     pagecolor="#ffffff"
     bordercolor="#666666"
     borderopacity="1"
     objecttolerance="10"
     gridtolerance="10"
     guidetolerance="10"
     inkscape:pageopacity="0"
     inkscape:pageshadow="2"
     inkscape:window-width="1920"
     inkscape:window-height="1027"
     id="namedview54"
     showgrid="false"
     inkscape:zoom="0.37981552"
     inkscape:cx="460.75"
     inkscape:cy="290.70001"
     inkscape:window-x="1592"
     inkscape:window-y="-8"
     inkscape:window-maximized="1"
     inkscape:current-layer="Layer_1" /><path
     id="US-HI"
     d="M86.1,619.3l1.9-3.6l2.3-0.3l0.3,0.8l-2.1,3.1H86.1z M96.3,615.6l6.1,2.6l2.1-0.3l1.6-3.9l-0.6-3.4l-4.2-0.5l-4,1.8L96.3,615.6z M127,625.6l3.7,5.5l2.4-0.3l1.1-0.5l1.5,1.3l3.7-0.2l1-1.5l-2.9-1.8l-1.9-3.7l-2.1-3.6l-5.8,2.9L127,625.6z M147.2,634.5l1.3-1.9l4.7,1l0.6-0.5l6.1,0.6l-0.3,1.3l-2.6,1.5l-4.4-0.3L147.2,634.5z M152.5,639.7l1.9,3.9l3.1-1.1l0.3-1.6l-1.6-2.1l-3.7-0.3L152.5,639.7z M159.5,638.6l2.3-2.9l4.7,2.4l4.4,1.1l4.4,2.7v1.9l-3.6,1.8l-4.8,1l-2.4-1.5L159.5,638.6z M176.1,654.1l1.6-1.3l3.4,1.6l7.6,3.6l3.4,2.1l1.6,2.4l1.9,4.4l4,2.6l-0.3,1.3l-3.9,3.2l-4.2,1.5l-1.5-0.6l-3.1,1.8l-2.4,3.2l-2.3,2.9l-1.8-0.2l-3.6-2.6l-0.3-4.5l0.6-2.4l-1.6-5.7l-2.1-1.8l-0.2-2.6l2.3-1l2.1-3.1l0.5-1l-1.6-1.8L176.1,654.1z"
     class="area"
     title="Hawaii"
     style="fill:#bebebe;fill-opacity:0.74509805;stroke:url(#linearGradient4290)" /><path
     id="US-AK"
     d="M11.1,553.7L10.8,639l1.6,1l3.1,0.2l1.5-1.1h2.6l0.2,2.9l7,6.8l0.5,2.6l3.4-1.9l0.6-0.2l0.3-3.1l1.5-1.6l1.1-0.2l1.9-1.5L39,645l0.6,2.9l1.9,1.1l1.1,2.4l3.9,1.8l3.4,6l2.7,3.9l2.3,2.7l1.5,3.7l5,1.8l5.2,2.1l1,4.4l0.5,3.1l-1,3.4l-1.8,2.3l-1.6-0.8l-1.5-3.1l-2.7-1.5l-1.8-1.1l-0.8,0.8l1.5,2.7l0.2,3.7l-1.1,0.5l-1.9-1.9l-2.1-1.3l0.5,1.6l1.3,1.8l-0.8,0.8c0,0-0.8-0.3-1.3-1c-0.5-0.6-2.1-3.4-2.1-3.4l-1-2.3c0,0-0.3,1.3-1,1s-1.3-1.5-1.3-1.5l1.8-1.9l-1.5-1.5v-5h-0.8l-0.8,3.4l-1.1,0.5l-1-3.7l-0.6-3.7l-0.8-0.5l0.3,5.7v1.1l-1.5-1.3l-3.6-6l-2.1-0.5l-0.6-3.7l-1.6-2.9l-1.6-1.1v-2.3l2.1-1.3l-0.5-0.3l-2.6,0.6l-3.4-2.4l-2.6-2.9l-4.8-2.6l-4-2.6l1.3-3.2v-1.6l-1.8,1.6l-2.9,1.1l-3.7-1.1l-5.7-2.4h-5.5l-0.6,0.5l-6.5-3.9l-2.1-0.3l-2.7-5.8l-3.6,0.3l-3.6,1.5l0.5,4.5l1.1-2.9l1,0.3l-1.5,4.4l3.2-2.7l0.6,1.6l-3.9,4.4l-1.3-0.3l-0.5-1.9l-1.3-0.8l-1.3,1.1l-2.7-1.8l-3.1,2.1l-1.8,2.1l-3.4,2.1l-4.7-0.2l-0.5-2.1l3.7-0.6v-1.3l-2.3-0.6l1-2.4l2.3-3.9v-1.8l0.2-0.8l4.4-2.3l1,1.3h2.7l-1.3-2.6l-3.7-0.3l-5,2.7l-2.4,3.4l-1.8,2.6l-1.1,2.3l-4.2,1.5l-3.1,2.6l-0.3,1.6l2.3,1l0.8,2.1l-2.7,3.2l-6.5,4.2l-7.8,4.2l-2.1,1.1l-5.3,1.1l-5.3,2.3l1.8,1.3l-1.5,1.5l-0.5,1.1l-2.7-1l-3.2,0.2l-0.8,2.3h-1l0.3-2.4l-3.6,1.3l-2.9,1l-3.4-1.3l-2.9,1.9h-3.2l-2.1,1.3l-1.6,0.8l-2.1-0.3l-2.6-1.1l-2.3,0.6l-1,1l-1.6-1.1v-1.9l3.1-1.3l6.3,0.6l4.4-1.6l2.1-2.1l2.9-0.6l1.8-0.8l2.7,0.2l1.6,1.3l1-0.3l2.3-2.7l3.1-1l3.4-0.6l1.3-0.3l0.6,0.5h0.8l1.3-3.7l4-1.5l1.9-3.7l2.3-4.5l1.6-1.5l0.3-2.6l-1.6,1.3l-3.4,0.6l-0.6-2.4l-1.3-0.3l-1,1l-0.2,2.9l-1.5-0.2l-1.5-5.8l-1.3,1.3l-1.1-0.5l-0.3-1.9l-4,0.2l-2.1,1.1l-2.6-0.3l1.5-1.5l0.5-2.6l-0.6-1.9l1.5-1l1.3-0.2l-0.6-1.8v-4.4l-1-1l-0.8,1.5h-6.1l-1.5-1.3l-0.6-3.9l-2.1-3.6v-1l2.1-0.8l0.2-2.1l1.1-1.1l-0.8-0.5l-1.3,0.5l-1.1-2.7l1-5l4.5-3.2l2.6-1.6l1.9-3.7l2.7-1.3l2.6,1.1l0.3,2.4l2.4-0.3l3.2-2.4l1.6,0.6l1,0.6h1.6l2.3-1.3l0.8-4.4c0,0,0.3-2.9,1-3.4s1-1,1-1l-1.1-1.9l-2.6,0.8l-3.2,0.8l-1.9-0.5l-3.6-1.8l-5-0.2l-3.6-3.7l0.5-3.9l0.6-2.4l-2.1-1.8l-1.9-3.7l0.5-0.8l6.8-0.5h2.1l1,1h0.6l-0.2-1.6l3.9-0.6l2.6,0.3l1.5,1.1l-1.5,2.1l-0.5,1.5l2.7,1.6l5,1.8l1.8-1l-2.3-4.4l-1-3.2l1-0.8l-3.4-1.9l-0.5-1.1l0.5-1.6l-0.8-3.9l-2.9-4.7l-2.4-4.2l2.9-1.9h3.2l1.8,0.6l4.2-0.2l3.7-3.6l1.1-3.1l3.7-2.4l1.6,1l2.7-0.6l3.7-2.1l1.1-0.2l1,0.8l4.5-0.2l2.7-3.1h1.1l3.6,2.4l1.9,2.1l-0.5,1.1l0.6,1.1l1.6-1.6l3.9,0.3l0.3,3.7l1.9,1.5l7.1,0.6l6.3,4.2l1.5-1l5.2,2.6l2.1-0.6l1.9-0.8l4.8,1.9L11.1,553.7L11.1,553.7z M-104,582.6l2.1,5.3l-0.2,1l-2.9-0.3l-1.8-4l-1.8-1.5h-2.4l-0.2-2.6l1.8-2.4l1.1,2.4l1.5,1.5L-104,582.6z M-106.6,616.1l3.7,0.8l3.7,1l0.8,1l-1.6,3.7l-3.1-0.2l-3.4-3.6L-106.6,616.1z M-127.3,602l1.1,2.6l1.1,1.6l-1.1,0.8l-2.1-3.1V602H-127.3z M-141,675.1l3.4-2.3l3.4-1l2.6,0.3l0.5,1.6l1.9,0.5l1.9-1.9l-0.3-1.6l2.7-0.6l2.9,2.6l-1.1,1.8l-4.4,1.1l-2.7-0.5l-3.7-1.1l-4.4,1.5l-1.6,0.3L-141,675.1z M-92.1,670.6l1.6,1.9l2.1-1.6l-1.5-1.3L-92.1,670.6z M-89.2,673.6l1.1-2.3l2.1,0.3l-0.8,1.9H-89.2z M-65.6,671.7l1.5,1.8l1-1.1l-0.8-1.9L-65.6,671.7z M-56.8,659.2l1.1,5.8l2.9,0.8l5-2.9l4.4-2.6L-45,658l0.5-2.4l-2.1,1.3l-2.9-0.8l1.6-1.1l1.9,0.8l3.9-1.8l0.5-1.5l-2.4-0.8l0.8-1.9l-2.7,1.9l-4.7,3.6l-4.8,2.9L-56.8,659.2z M-14.5,639.4l2.4-1.5l-1-1.8l-1.8,1L-14.5,639.4z"
     class="area"
     title="Alaska"
     style="fill:#bebebe;fill-opacity:0.74509805;stroke:url(#linearGradient4288)" /><path
     id="US-FL"
     d="M608.4,545.5l2.3,7.3l3.7,9.7l5.3,9.4l3.7,6.3l4.8,5.5l4,3.7l1.6,2.9l-1.1,1.3L632,593l2.9,7.4l2.9,2.9l2.6,5.3l3.6,5.8l4.5,8.2l1.3,7.6l0.5,12l0.6,1.8l-0.3,3.4l-2.4,1.3l0.3,1.9l-0.6,1.9l0.3,2.4l0.5,1.9l-2.7,3.2l-3.1,1.5l-3.9,0.2l-1.5,1.6l-2.4,1l-1.3-0.5l-1.1-1l-0.3-2.9l-0.8-3.4l-3.4-5.2l-3.6-2.3l-3.9-0.3l-0.8,1.3l-3.1-4.4l-0.6-3.6l-2.6-4l-1.8-1.1l-1.6,2.1l-1.8-0.3l-2.1-5l-2.9-3.9l-2.9-5.3l-2.6-3.1l-3.6-3.7l2.1-2.4l3.2-5.5l-0.2-1.6l-4.5-1l-1.6,0.6l0.3,0.6l2.6,1l-1.5,4.5l-0.8,0.5l-1.8-4l-1.3-4.8l-0.3-2.7l1.5-4.7v-9.5L589,585l-1.3-3.1l-5.2-1.3l-1.9-0.6l-1.6-2.6l-3.4-1.6l-1.1-3.4l-2.7-1l-2.4-3.7l-4.2-1.5l-2.9-1.5h-2.6l-4,0.8l-0.2,1.9l0.8,1l-0.5,1.1l-3.1-0.2l-3.7,3.6l-3.6,1.9h-3.9l-3.2,1.3l-0.3-2.7l-1.6-1.9l-2.9-1.1l-1.6-1.5l-8.1-3.9l-7.6-1.8l-4.4,0.6l-6,0.5l-6,2.1l-3.5,0.6l-0.2-8l-2.6-1.9l-1.8-1.8l0.3-3.1l10.2-1.3l25.5-2.9l6.8-0.6l5.4,0.3l2.6,3.9l1.5,1.5l8.1,0.5l10.8-0.6l21.5-1.3l5.4-0.7l4.6,0l0.2,2.9l3.8,0.8l0.3-4.8l-1.6-4.5l1-0.7l5.1,0.5L608.4,545.5z M620.9,677.9l2.4-0.6l1.3-0.2l1.5-2.3l2.3-1.6l1.3,0.5l1.7,0.3l0.4,1.1l-3.5,1.2l-4.2,1.5l-2.3,1.2L620.9,677.9z M634.4,672.9l1.2,1.1l2.7-2.1l5.3-4.2l3.7-3.9l2.5-6.6l1-1.7l0.2-3.4l-0.7,0.5l-1,2.8l-1.5,4.6l-3.2,5.3l-4.4,4.2l-3.4,1.9L634.4,672.9z"
     class="area"
     title="Florida"
     style="fill:#bebebe;fill-opacity:0.74509805;stroke:url(#linearGradient4286)" /><path
     id="US-SC"
     d="M614.2,512.9l-1.8,1l-2.6-1.3l-0.6-2.1l-1.3-3.6l-2.3-2.1l-2.6-0.6l-1.6-4.8l-2.7-6l-4.2-1.9l-2.1-1.9l-1.3-2.6L589,485l-2.3-1.3l-2.3-2.9l-3.1-2.3l-4.5-1.8l-0.5-1.5l-2.4-2.9l-0.5-1.5l-3.4-5.2l-3.4,0.2l-4-2.4l-1.3-1.3l-0.3-1.8l0.8-1.9l2.3-1l-0.3-2.1l6.1-2.6l9.1-4.5l7.3-0.8l16.5-0.5l2.3,1.9l1.6,3.2l4.4-0.5l12.6-1.5l2.9,0.8l12.6,7.6l10.1,8.1l-5.4,5.5l-2.6,6.1l-0.5,6.3l-1.6,0.8l-1.1,2.7l-2.4,0.6l-2.1,3.6l-2.7,2.7l-2.3,3.4l-1.6,0.8l-3.6,3.4l-2.9,0.2l1,3.2l-5,5.5L614.2,512.9z"
     class="area"
     title="South Carolina"
     style="fill:#bebebe;fill-opacity:0.74509805;stroke:url(#linearGradient4284)" /><path
     id="US-GA"
     d="M542.6,458l-4.8,0.8l-8.4,1.1l-8.6,0.9v2.2l0.2,2.1l0.6,3.4l3.4,7.9l2.4,9.9l1.5,6.1l1.6,4.8l1.5,7l2.1,6.3l2.6,3.4l0.5,3.4l1.9,0.8l0.2,2.1l-1.8,4.8l-0.5,3.2l-0.2,1.9l1.6,4.4l0.3,5.3l-0.8,2.4l0.6,0.8l1.5,0.8l0.6,3.4l2.6,3.9l1.5,1.5l7.9,0.2l10.8-0.6l21.5-1.3l5.4-0.7l4.6,0l0.2,2.9l2.6,0.8l0.3-4.4l-1.6-4.5l1.1-1.6l5.8,0.8l5,0.3l-0.8-6.3l2.3-10l1.5-4.2l-0.5-2.6l3.3-6.2l-0.5-1.4l-1.9,0.7l-2.6-1.3l-0.6-2.1l-1.3-3.6l-2.3-2.1l-2.6-0.6l-1.6-4.8l-2.9-6.3l-4.2-1.9l-2.1-1.9l-1.3-2.6l-2.1-1.9l-2.3-1.3l-2.3-2.9l-3.1-2.3l-4.5-1.8l-0.5-1.5l-2.4-2.9l-0.5-1.5l-3.4-4.9l-3.4,0.2l-4.1-3l-1.3-1.3l-0.3-1.8l0.8-1.9l2.4-1.2l-1.1-1.2l0.1-0.3l-5.8,1l-7,0.8L542.6,458z"
     class="area"
     title="Georgia"
     style="fill:#bebebe;fill-opacity:0.74509805;stroke:url(#linearGradient4282)" /><path
     id="US-AL"
     d="M478.6,566.8l-1.6-15.2l-2.7-18.8l0.2-14.1l0.8-31l-0.2-16.7l0.2-6.4l7.8-0.4l27.8-2.6l8.9-0.7l-0.1,2.2l0.2,2.1l0.6,3.4l3.4,7.9l2.4,9.9l1.5,6.1l1.6,4.8l1.5,7l2.1,6.3l2.6,3.4l0.5,3.4l1.9,0.8l0.2,2.1l-1.8,4.8l-0.5,3.2l-0.2,1.9l1.6,4.4l0.3,5.3l-0.8,2.4l0.6,0.8l1.5,0.8l1,2.5h-6.3l-6.8,0.6l-25.5,2.9l-10.4,1.4l-0.1,3.8l1.8,1.8l2.6,1.9l0.6,7.9l-5.5,2.6l-2.7-0.3l2.7-1.9v-1l-3.1-6l-2.3-0.6l-1.5,4.4l-1.3,2.7l-0.6-0.2L478.6,566.8z"
     class="area"
     title="Alabama"
     style="fill:#bebebe;fill-opacity:0.74509805;stroke:url(#linearGradient4280)" /><path
     id="US-NC"
     d="M685.1,398.5l1.7,4.7l3.6,6.5l2.4,2.4l0.6,2.3l-2.4,0.2l0.8,0.6l-0.3,4.2l-2.6,1.3l-0.6,2.1l-1.3,2.9l-3.7,1.6l-2.4-0.3l-1.5-0.2l-1.6-1.3l0.3,1.3v1h1.9l0.8,1.3l-1.9,6.3h4.2l0.6,1.6l2.3-2.3l1.3-0.5l-1.9,3.6l-3.1,4.8H681l-1.1-0.5l-2.7,0.6l-5.2,2.4l-6.5,5.3l-3.4,4.7l-1.9,6.5l-0.5,2.4l-4.7,0.5l-5.5,1.3l-9.9-8.2l-12.6-7.6l-2.9-0.8l-12.6,1.5l-4.3,0.8l-1.6-3.2l-3-2.1l-16.5,0.5l-7.3,0.8l-9.1,4.5l-6.1,2.6l-1.6,0.3l-5.8,1l-7,0.8l-6.8,0.5l0.5-4.1l1.8-1.5l2.7-0.6l0.6-3.7l4.2-2.7l3.9-1.5l4.2-3.6l4.4-2.1l0.6-3.1l3.9-3.9l0.6-0.2c0,0,0,1.1,0.8,1.1s1.9,0.3,1.9,0.3l2.3-3.6l2.1-0.6l2.3,0.3l1.6-3.6l2.9-2.6l0.5-2.1v-4l4.5,0.7l7.1-1.3l15.8-1.9l17.1-2.6l19.9-4l19.7-4.2l11.4-2.8L685.1,398.5z M689,431.5l2.6-2.5l3.2-2.6l1.5-0.6l0.2-2l-0.6-6.1l-1.5-2.3l-0.6-1.9l0.7-0.2l2.7,5.5l0.4,4.4l-0.2,3.4L694,428l-2.8,2.4l-1.1,1.2L689,431.5z"
     class="area"
     title="North Carolina"
     style="fill:#bebebe;fill-opacity:0.74509805;stroke:url(#linearGradient4278)" /><path
     id="US-TN"
     d="M550.1,420.6l-51.9,5l-15.8,1.8l-4.6,0.5l-3.9,0v3.9l-8.4,0.5l-7,0.6l-11.1,0.1l-0.3,5.8l-2.1,6.3l-1,3l-1.3,4.4l-0.3,2.6l-4,2.3l1.5,3.6l-1,4.4l-1,0.8l7.3-0.2l24.1-1.9l5.3-0.2l8.1-0.5l27.8-2.6l10.2-0.8l8.4-1l8.4-1.1l4.8-0.8l-0.1-4.5l1.8-1.5l2.7-0.6l0.6-3.7l4.2-2.7l3.9-1.5l4.2-3.6l4.4-2.1l0.9-3.5l4.3-3.9l0.6-0.2c0,0,0,1.1,0.8,1.1s1.9,0.3,1.9,0.3l2.3-3.6l2.1-0.6l2.3,0.3l1.6-3.6l2.1-2.2l0.6-1l0.2-3.9l-1.5-0.3l-2.4,1.9l-7.9,0.2l-12,1.9L550.1,420.6z"
     class="area"
     title="Tennessee"
     style="fill:#bebebe;fill-opacity:0.74509805;stroke:url(#linearGradient4276)" /><path
     id="US-RI"
     d="M727.1,279.8l-0.5-4.2l-0.8-4.4l-1.7-5.9l5.7-1.5l1.6,1.1l3.4,4.4l2.9,4.4l-2.9,1.5l-1.3-0.2l-1.1,1.8l-2.4,1.9L727.1,279.8z"
     class="area"
     title="Rhode Island"
     style="fill:#bebebe;fill-opacity:0.74509805;stroke:url(#linearGradient4274)" /><path
     id="US-CT"
     d="M726.2,280.1l-0.6-4.2l-0.8-4.4l-1.6-6l-4.2,0.9l-21.8,4.8l0.6,3.3l1.5,7.3v8.1l-1.1,2.3l1.8,2.1l5-3.4l3.6-3.2l1.9-2.1l0.8,0.6l2.7-1.5l5.2-1.1L726.2,280.1z"
     class="area"
     title="Connecticut"
     style="fill:#bebebe;fill-opacity:0.74509805;stroke:url(#linearGradient4272)" /><path
     id="US-MA"
     d="M753,273.9l2.2-0.7l0.5-1.7l1,0.1l1,2.3l-1.3,0.5l-3.9,0.1L753,273.9z M743.6,274.7l2.3-2.6h1.6l1.8,1.5l-2.4,1l-2.2,1L743.6,274.7z M708.8,252.7l17.5-4.2l2.3-0.6l2.1-3.2l3.7-1.7l2.9,4.4l-2.4,5.2l-0.3,1.5l1.9,2.6l1.1-0.8h1.8l2.3,2.6l3.9,6l3.6,0.5l2.3-1l1.8-1.8l-0.8-2.7l-2.1-1.6l-1.5,0.8l-1-1.3l0.5-0.5l2.1-0.2l1.8,0.8l1.9,2.4l1,2.9l0.3,2.4l-4.2,1.5l-3.9,1.9l-3.9,4.5l-1.9,1.5v-1l2.4-1.5l0.5-1.8l-0.8-3.1l-2.9,1.5l-0.8,1.5l0.5,2.3l-2.1,1l-2.7-4.5l-3.4-4.4l-2.1-1.8l-6.5,1.9l-5.1,1.1l-21.8,4.8l-0.4-4.9l0.6-10.6l5.2-0.9L708.8,252.7z"
     class="area"
     title="Massachusetts"
     style="fill:#bebebe;fill-opacity:0.74509805;stroke:url(#linearGradient4270)" /><path
     id="US-ME"
     d="M776.2,177.3l1.9,2.1l2.3,3.7v1.9l-2.1,4.7l-1.9,0.6l-3.4,3.1l-4.8,5.5c0,0-0.6,0-1.3,0c-0.6,0-1-2.1-1-2.1l-1.8,0.2l-1,1.5l-2.4,1.5l-1,1.5l1.6,1.5l-0.5,0.6l-0.5,2.7l-1.9-0.2v-1.6l-0.3-1.3l-1.5,0.3l-1.8-3.2l-2.1,1.3l1.3,1.5l0.3,1.1l-0.8,1.3l0.3,3.1l0.2,1.6l-1.6,2.6l-2.9,0.5l-0.3,2.9l-5.3,3.1l-1.3,0.5l-1.6-1.5l-3.1,3.6l1,3.2l-1.5,1.3l-0.2,4.4l-1.1,6.3l-2.5-1.2l-0.5-3.1l-3.9-1.1l-0.3-2.7l-7.3-23.4l-4.2-13.6l1.4-0.1l1.5,0.4v-2.6l0.8-5.5l2.6-4.7l1.5-4l-1.9-2.4v-6l0.8-1l0.8-2.7l-0.2-1.5l-0.2-4.8l1.8-4.8l2.9-8.9l2.1-4.2h1.3l1.3,0.2v1.1l1.3,2.3l2.7,0.6l0.8-0.8v-1l4-2.9l1.8-1.8l1.5,0.2l6,2.4l1.9,1l9.1,29.9h6l0.8,1.9l0.2,4.8l2.9,2.3h0.8l0.2-0.5l-0.5-1.1L776.2,177.3z M755.3,207.5l1.5-1.5l1.4,1.1l0.6,2.4l-1.7,0.9L755.3,207.5z M762,201.6l1.8,1.9c0,0,1.3,0.1,1.3-0.2c0-0.3,0.2-2,0.2-2l0.9-0.8l-0.8-1.8l-2,0.7L762,201.6z"
     class="area"
     title="Maine"
     style="fill:#bebebe;fill-opacity:0.74509805;stroke:url(#linearGradient4268)" /><path
     id="US-NH"
     d="M733.8,242.4l0.9-1.1l1.1-3.3l-2.5-0.9l-0.5-3.1l-3.9-1.1l-0.3-2.7l-7.3-23.4l-4.6-14.5l-0.9,0l-0.6,1.6l-0.6-0.5l-1-1l-1.5,1.9l0,5l0.3,5.7l1.9,2.7v4l-3.7,5.1l-2.6,1.1v1.1l1.1,1.8v8.6l-0.8,9.2l-0.2,4.8l1,1.3l-0.2,4.5l-0.5,1.8l1.5,0.9l16.4-4.7l2.3-0.6l1.5-2.6L733.8,242.4z"
     class="area"
     title="New Hampshire"
     style="fill:#bebebe;fill-opacity:0.74509805;stroke:url(#linearGradient4266)" /><path
     id="US-VT"
     d="M697.3,253.7l-0.8-5.7l-2.4-10l-0.6-0.3l-2.9-1.3l0.8-2.9l-0.8-2.1l-2.7-4.6l1-3.9l-0.8-5.2l-2.4-6.5l-0.8-4.9l26.2-6.7l0.3,5.8l1.9,2.7v4l-3.7,4l-2.6,1.1v1.1l1.1,1.8v8.6l-0.8,9.2l-0.2,4.8l1,1.3l-0.2,4.5l-0.5,1.8l0.7,1.6l-7,1.4L697.3,253.7z"
     class="area"
     title="Vermont"
     style="fill:#bebebe;fill-opacity:0.74509805;stroke:url(#linearGradient4264)" /><path
     id="US-NY"
     d="M681.6,289.4l-1.1-1l-2.6-0.2l-2.3-1.9l-1.6-6.1l-3.5,0.1l-2.4-2.7l-19.4,4.4l-43,8.7l-7.5,1.2l-0.7-6.5l1.4-1.1l1.3-1.1l1-1.6l1.8-1.1l1.9-1.8l0.5-1.6l2.1-2.7l1.1-1l-0.2-1l-1.3-3.1l-1.8-0.2l-1.9-6.1l2.9-1.8l4.4-1.5l4-1.3l3.2-0.5l6.3-0.2l1.9,1.3l1.6,0.2l2.1-1.3l2.6-1.1l5.2-0.5l2.1-1.8l1.8-3.2l1.6-1.9h2.1l1.9-1.1l0.2-2.3l-1.5-2.1l-0.3-1.5l1.1-2.1v-1.5h-1.8l-1.8-0.8l-0.8-1.1l-0.2-2.6l5.8-5.5l0.6-0.8l1.5-2.9l2.9-4.5l2.7-3.7l2.1-2.4l2.4-1.8l3.1-1.2l5.5-1.3l3.2,0.2l4.5-1.5l7.6-2.1l0.5,5l2.4,6.5l0.8,5.2l-1,3.9l2.6,4.5l0.8,2.1l-0.8,2.9l2.9,1.3l0.6,0.3l3.1,11l-0.5,5.1l-0.5,10.8l0.8,5.5l0.8,3.6l1.5,7.3v8.1l-1.1,2.3l1.8,2l0.8,1.7l-1.9,1.8l0.3,1.3l1.3-0.3l1.5-1.3l2.3-2.6l1.1-0.6l1.6,0.6l2.3,0.2l7.9-3.9l2.9-2.7l1.3-1.5l4.2,1.6l-3.4,3.6l-3.9,2.9l-7.1,5.3l-2.6,1l-5.8,1.9l-4,1.1l-1.2-0.5l-0.2-3.7l0.5-2.7l-0.2-2.1l-2.8-1.7l-4.5-1l-3.9-1.1L681.6,289.4z"
     class="area"
     title="New York"
     style="fill:#bebebe;fill-opacity:0.74509805;stroke:url(#linearGradient4262)" /><path
     id="US-NJ"
     d="M681.2,290.3l-2.1,2.4v3.1l-1.9,3.1l-0.2,1.6l1.3,1.3l-0.2,2.4l-2.3,1.1l0.8,2.7l0.2,1.1l2.7,0.3l1,2.6l3.6,2.4l2.4,1.6v0.8l-3.2,3.1l-1.6,2.3l-1.5,2.7l-2.3,1.3l-1.2,0.7l-0.2,1.2l-0.6,2.6l1.1,2.2l3.2,2.9l4.8,2.3l4,0.6l0.2,1.5l-0.8,1l0.3,2.7h0.8l2.1-2.4l0.8-4.8l2.7-4l3.1-6.5l1.1-5.5l-0.6-1.1l-0.2-9.4L697,307l-1.1,0.8l-2.7,0.3l-0.5-0.5l1.1-1l2.1-1.9l0.1-1.1l-0.4-3.4l0.5-2.7l-0.2-2.1l-2.6-1.1l-4.5-1l-3.9-1.1L681.2,290.3z"
     class="area"
     title="New Jersey"
     style="fill:#bebebe;fill-opacity:0.74509805;stroke:url(#linearGradient4260)" /><path
     id="US-PA"
     d="M675.2,326.5l1.1-0.6l2.3-0.6l1.5-2.7l1.6-2.3l3.2-3.1v-0.8l-2.4-1.6l-3.6-2.4l-1-2.6l-2.7-0.3l-0.2-1.1l-0.8-2.7l2.3-1.1l0.2-2.4l-1.3-1.3l0.2-1.6l1.9-3.1v-3.1l2.3-2.4l0.2-1.1l-2.6-0.2l-2.3-1.9l-2.4-5.3l-3-0.9l-2.3-2.1l-18.6,4l-43,8.7l-8.9,1.5l-0.5-7.1l-5.5,5.6l-1.3,0.5l-4.2,3l2.9,19.1l2.5,9.7l3.6,19.3l3.3-0.6l11.9-1.5l37.9-7.7l14.9-2.8l8.3-1.6l0.3-0.2l2.1-1.6L675.2,326.5z"
     class="area"
     title="Pennsylvania"
     style="fill:#bebebe;fill-opacity:0.74509805;stroke:url(#linearGradient4258)" /><path
     id="US-DE"
     d="M675.4,330.4l0.6-2.1l0-1.2l-1.3-0.1l-2.1,1.6l-1.5,1.5l1.5,4.2l2.3,5.7l2.1,9.7l1.6,6.3l5-0.2l6.1-1.2l-2.3-7.4l-1,0.5l-3.6-2.4l-1.8-4.7l-1.9-3.6l-2.3-1l-2.1-3.6L675.4,330.4z"
     class="area"
     title="Delaware"
     style="fill:#bebebe;fill-opacity:0.74509805;stroke:url(#linearGradient4256)" /><path
     id="US-MD"
     d="M690,355.3l-6.1,1.3l-5.8,0.2l-1.8-7.1l-2.1-9.7l-2.3-5.7l-1.3-4.4l-7.5,1.6l-14.9,2.8l-37.5,7.6l1.1,5l1,5.7l0.3-0.3l2.1-2.4l2.3-2.6l2.4-0.6l1.5-1.5l1.8-2.6l1.3,0.6l2.9-0.3l2.6-2.1l2-1.5l1.8-0.5l1.6,1.1l2.9,1.5l1.9,1.8l1.2,1.5l4.1,1.7v2.9l5.5,1.3l1.1,0.5l1.4-2l2.9,2l-1.3,2.5l-0.8,4l-1.8,2.6v2.1l0.6,1.8l5.1,1.4l4.3-0.1l3.1,1l2.1,0.3l1-2.1l-1.5-2.1v-1.8l-2.4-2.1l-2.1-5.5l1.3-5.3l-0.2-2.1l-1.3-1.3c0,0,1.5-1.6,1.5-2.3c0-0.6,0.5-2.1,0.5-2.1l1.9-1.3l1.9-1.6l0.5,1l-1.5,1.6l-1.3,3.7l0.3,1.1l1.8,0.3l0.5,5.5l-2.1,1l0.3,3.6l0.5-0.2l1.1-1.9l1.6,1.8l-1.6,1.3l-0.3,3.4l2.6,3.4l3.9,0.5l1.6-0.8l3.2,4.2l1.4,0.5l6.7-2.8l2-4L690,355.3z M673.3,364.3l1.1,2.5l0.2,1.8l1.1,1.9c0,0,0.9-0.9,0.9-1.2s-0.7-3.1-0.7-3.1l-0.7-2.3L673.3,364.3z"
     class="area"
     title="Maryland"
     style="fill:#bebebe;fill-opacity:0.74509805;stroke:url(#linearGradient4254)" /><path
     id="US-WV"
     d="M609.6,342l1.1,4.9l1.1,6.9l3.6-2.7l2.3-3.1l2.5-0.6l1.5-1.5l1.8-2.6l1.2,0.6l2.9-0.3l2.6-2.1l2-1.5l1.8-0.5l1.3,1l2.2,1.1l1.9,1.8l1.4,1.3l-0.1,4.7l-5.7-3.1l-4.5-1.8l-0.2,5.3l-0.5,2.1l-1.6,2.7l-0.6,1.6l-3.1,2.4l-0.5,2.3l-3.4,0.3l-0.3,3.1l-1.1,5.5h-2.6l-1.3-0.8l-1.6-2.7l-1.8,0.2l-0.3,4.4l-2.1,6.6l-5,10.8l0.8,1.3l-0.2,2.7l-2.1,1.9l-1.5-0.3l-3.2,2.4l-2.6-1l-1.8,4.7c0,0-3.7,0.8-4.4,1s-2.4-1.3-2.4-1.3l-2.4,2.3l-2.6,0.6l-2.9-0.8l-1.3-1.3l-2.2-3l-3.1-2l-2.6-2.7l-2.9-3.7l-0.6-2.3l-2.6-1.5l-0.8-1.6l-0.2-5.3l2.2-0.1l1.9-0.8l0.2-2.7l1.6-1.5l0.2-5l1-3.9l1.3-0.6l1.3,1.1l0.5,1.8l1.8-1l0.5-1.6l-1.1-1.8v-2.4l1-1.3l2.3-3.4l1.3-1.5l2.1,0.5l2.3-1.6l3.1-3.4l2.3-3.9l0.3-5.7l0.5-5v-4.7l-1.1-3.1l1-1.5l1.3-1.3l3.5,19.8l4.6-0.8L609.6,342z"
     class="area"
     title="West Virginia"
     style="fill:#bebebe;fill-opacity:0.74509805;stroke:url(#linearGradient4252)" /><path
     id="US-KY"
     d="M574.8,397.8l-2.3,2.7l-4.2,3.6L564,410l-1.8,1.8v2.1l-3.9,2.1l-5.7,3.4l-3.5,0.4l-51.9,4.9l-15.8,1.8l-4.6,0.5l-3.9,0l-0.2,4.2l-8.2,0.1l-7,0.6l-10.4,0.2l1.9-0.2l2.2-1.8l2.1-1.1l0.2-3.2l0.9-1.8l-1.6-2.5l0.8-1.9l2.3-1.8l2.1-0.6l2.7,1.3l3.6,1.3l1.1-0.3l0.2-2.3l-1.3-2.4l0.3-2.3l1.9-1.5l2.6-0.6l1.6-0.6l-0.8-1.8l-0.6-1.9l1.1-0.8l1.1-3.3l3-1.7l5.8-1l3.6-0.5l1.5,1.9l1.8,0.8l1.8-3.2l2.9-1.5l1.9,1.6l0.8,1.1l2.1-0.5l-0.2-3.4l2.9-1.6l1.1-0.8l1.1,1.6h4.7l0.8-2.1l-0.3-2.3l2.9-3.6l4.7-3.9l0.5-4.5l2.7-0.3l3.9-1.8l2.7-1.9l-0.3-1.9l-1.5-1.5l0.6-2.2l4.1-0.2l2.4-0.8l2.9,1.6l1.6,4.4l5.8,0.3l1.8,1.8l2.1,0.2l2.4-1.5l3.1,0.5l1.3,1.5l2.7-2.6l1.8-1.3h1.6l0.6,2.7l1.8,1l2.4,2.2l0.2,5.5l0.8,1.6l2.6,1.5l0.6,2.3l2.9,3.7l2.6,2.7L574.8,397.8z"
     class="area"
     title="Kentucky"
     style="fill:#bebebe;fill-opacity:0.74509805;stroke:url(#linearGradient4250)" /><path
     id="US-OH"
     d="M584.4,295l-6.1,4.1l-3.9,2.3l-3.4,3.7l-4,3.9l-3.2,0.8l-2.9,0.5l-5.5,2.6l-2.1,0.2l-3.4-3.1l-5.2,0.6l-2.6-1.5l-2.4-1.4l-4.9,0.7l-10.2,1.6l-7.8,1.2l1.3,14.6l1.8,13.7l2.6,23.4l0.6,4.8l4.1-0.1l2.4-0.8l3.4,1.5l2.1,4.4l5.1,0l1.9,2.1l1.8-0.1l2.5-1.3l2.5,0.4l2,1.5l1.7-2.1l2.3-1.3l2.1-0.7l0.6,2.7l1.8,1l3.5,2.3l2.2-0.1l1.1-1.1l-0.1-1.4l1.6-1.5l0.2-5l1-3.9l1.5-1.4l1.5,0.9l0.8,1.2l1.2-0.2l-0.4-2.4l-0.6-0.6v-2.4l1-1.3l2.3-3.4l1.3-1.5l2.1,0.5l2.3-1.6l3.1-3.4l2.3-3.9l0.2-5.4l0.5-5v-4.7l-1.1-3.1l1-1.5l0.9-1l-1.4-9.8L584.4,295z"
     class="area"
     title="Ohio"
     style="fill:#bebebe;fill-opacity:0.74509805;stroke:url(#linearGradient4248)" /><path
     id="US-MI"
     d="M434.6,182.1l1.8-2.1l2.2-0.8l5.4-3.9l2.3-0.6l0.5,0.5l-5.1,5.1l-3.3,1.9l-2.1,0.9L434.6,182.1z M520.8,214.2l0.6,2.5l3.2,0.2l1.3-1.2c0,0-0.1-1.5-0.4-1.6c-0.3-0.2-1.6-1.9-1.6-1.9l-2.2,0.2l-1.6,0.2l-0.3,1.1L520.8,214.2z M550.9,277.2l-3.2-8.2l-2.3-9.1l-2.4-3.2l-2.6-1.8l-1.6,1.1l-3.9,1.8l-1.9,5l-2.7,3.7l-1.1,0.6l-1.5-0.6c0,0-2.6-1.5-2.4-2.1c0.2-0.6,0.5-5,0.5-5l3.4-1.3l0.8-3.4l0.6-2.6l2.4-1.6l-0.3-10l-1.6-2.3l-1.3-0.8l-0.8-2.1l0.8-0.8l1.6,0.3l0.2-1.6L529,231l-1.3-2.6h-2.6l-4.5-1.5l-5.5-3.4h-2.7l-0.6,0.6l-1-0.5l-3.1-2.3l-2.9,1.8l-2.9,2.3l0.3,3.6l1,0.3l2.1,0.5l0.5,0.8l-2.6,0.8l-2.6,0.3l-1.5,1.8l-0.3,2.1l0.3,1.6l0.3,5.5l-3.6,2.1l-0.6-0.2v-4.2l1.3-2.4l0.6-2.4l-0.8-0.8l-1.9,0.8l-1,4.2l-2.7,1.1l-1.8,1.9l-0.2,1l0.6,0.8l-0.6,2.6l-2.3,0.5v1.1l0.8,2.4l-1.1,6.1l-1.6,4l0.6,4.7l0.5,1.1l-0.8,2.4l-0.3,0.8l-0.3,2.7l3.6,6l2.9,6.5l1.5,4.8l-0.8,4.7l-1,6l-2.4,5.2l-0.3,2.7l-3.3,3.1l4.4-0.2l21.4-2.3l7.3-1l0.1,1.7l6.9-1.2l10.3-1.5l3.9-0.5l0.1-0.6l0.2-1.5l2.1-3.7l2-1.7l-0.2-5.1l1.6-1.6l1.1-0.3l0.2-3.6l1.5-3l1.1,0.6l0.2,0.6l0.8,0.2l1.9-1L550.9,277.2z M420.5,211.2l0.7-0.6l2.7-0.8l3.6-2.3v-1l0.6-0.6l6-1l2.4-1.9l4.4-2.1l0.2-1.3l1.9-2.9l1.8-0.8l1.3-1.8l2.3-2.3l4.4-2.4l4.7-0.5l1.1,1.1l-0.3,1l-3.7,1l-1.5,3.1l-2.3,0.8l-0.5,2.4l-2.4,3.2l-0.3,2.6l0.8,0.5l1-1.1l3.6-2.9l1.3,1.3h2.3l3.2,1l1.5,1.1l1.5,3.1l2.7,2.7l3.9-0.2l1.5-1l1.6,1.3l1.6,0.5l1.3-0.8h1.1l1.6-1l4-3.6l3.4-1.1l6.6-0.3l4.5-1.9l2.6-1.3l1.5,0.2v5.7l0.5,0.3l2.9,0.8l1.9-0.5l6.1-1.6l1.1-1.1l1.5,0.5v7l3.2,3.1l1.3,0.6l1.3,1l-1.3,0.3l-0.8-0.3l-3.7-0.5l-2.1,0.6l-2.3-0.2l-3.2,1.5h-1.8l-5.8-1.3l-5.2,0.2l-1.9,2.6l-7,0.6l-2.4,0.8l-1.1,3.1l-1.3,1.1l-0.5-0.2l-1.5-1.6l-4.5,2.4h-0.6l-1.1-1.6l-0.8,0.2l-1.9,4.4l-1,4l-3.2,7l-1.2-1l-1.4-1l-1.9-10.3l-3.5-1.4l-2.1-2.3l-12.1-2.7l-2.9-1l-8.2-2.2l-7.9-1.1L420.5,211.2z"
     class="area"
     title="Michigan"
     style="fill:#bebebe;fill-opacity:0.74509805;stroke:url(#linearGradient4246)" /><path
     id="US-WY"
     d="M207.3,243.8l-10.5-0.8l-32.1-3.3l-16.2-2.1l-28.3-4.1l-19.9-3l-1.4,11.2L94.9,266l-5.3,30.4l-1.5,10.5l-1.7,11.9l6.5,0.9l25.9,2.5l20.6,2.3l36.8,4.1l23.8,2.9l4.5-44.2l1.4-25.4L207.3,243.8z"
     class="area"
     title="Wyoming"
     style="fill:#bebebe;fill-opacity:0.74509805;stroke:url(#linearGradient4244)" /><path
     id="US-MT"
     d="M209.7,222.3l0.6-11.2l2.3-24.8c0.5-5,1.1-8.5,1.4-15.4l0.9-14.6l-30.7-2.8L155,150l-29.3-4l-32.3-5.3l-18.4-3.4l-32.7-6.9l-4.5,21.3l3.4,7.5l-1.4,4.6l1.8,4.6l3.2,1.4l4.6,10.8l2.7,3.2l0.5,1.1L56,186l0.5,2.1l-7.1,17.6v2.5l2.5,3.2h0.9l4.8-3l0.7-1.1l1.6,0.7l-0.2,5.3l2.7,12.6l3,2.5l0.9,0.7l1.8,2.3l-0.5,3.4l0.7,3.4l1.1,0.9l2.3-2.3h2.7l3.2,1.6l2.5-0.9h4.1L88,239l2.7-0.5l0.5-3l3-0.7l1.4,1.4l0.5,3.2l1.8,1.4l1.5-11.6l20.7,3l28.2,4l16.6,1.9l31.4,3.5l11,1.5l1.1-15.4L209.7,222.3z"
     class="area"
     title="Montana"
     style="fill:#bebebe;fill-opacity:0.74509805;stroke:url(#linearGradient4242)" /><path
     id="US-ID"
     d="M15.1,281C-7.5,276.6,1,278.1-6,276.6l4.4-17.5l4.3-17.7l1.4-4.2l2.5-5.9l-1.3-2.3L2.9,229l-0.8-1l0.5-1.1l0.3-3.1l4.5-5.5l1.8-0.5l1.1-1.1l0.6-3.2l0.9-0.7l3.9-5.8l3.9-4.3l0.2-3.8l-3.4-2.6l-1.3-4.4l0.4-9.7l3.7-16.5l4.5-20.8l3.8-13.5l0.8-3.8l13,2.5l-4.2,21.5l2.9,7.7l-1.1,4.6l2,4.6l3.2,1.7l4.5,9.8l2.7,3.8l0.6,1.1l3.4,1.1l0.5,2.5l-6.9,16.8l0.3,3.3l2.7,2.9l1.9,0.5l4.8-3.6l0.4-0.5l0.2,0.8l0.3,4.1l2.6,12.9l3.5,2.7l0.4,0.8l2.1,2.4l-0.8,2.8l0.7,3.8l1.9,0.9l2.1-1.6l2.6-0.5l3.4,1.6l2.5-0.6L84,238l4,1.6l2.7-0.3l0.9-2.3l2.5-1.6l0.7,1.7l0.6,2.2l2.3,2.5l-3.8,24l-5.1,29l-4.2-0.3l-8.2-1.5l-9.8-1.8l-12.2-2.4l-12.5-2.5l-8.5-1.8l-9.3-1.7L15.1,281z"
     class="area"
     title="Idaho"
     style="fill:#bebebe;fill-opacity:0.74509805;stroke:url(#linearGradient4240)" /><path
     id="US-WA"
     d="M-1.2,186.7c-8.4-2.3-13.5-3-19.2-2.9c-4.3,0.1-8.1-0.1-8.5-0.5s-2.1-0.2-3.9,0.4c-1.8,0.6-4.5,0.7-6.2,0.3c-1.6-0.5-4-1-5.2-1.1c-1.2-0.1-5.1-1.2-8.7-2.4c-3.9-1.3-8.1-1.9-10.5-1.6c-5.8,0.8-9.3-1.7-8.7-6.2c0.6-4.2-1.6-9.9-3.8-9.9c-0.9,0-2.2-0.8-2.9-1.7c-0.7-1-2.7-1.8-4.5-1.9c-1.8-0.1-3.6-0.7-4-1.3c-1.3-1.8-0.9-3.8,0.7-3.8c2.1,0,3.1-3.2,1.6-5c-1.6-1.9-0.5-4.8,1.9-4.8c1.6,0,1.6-0.2-0.2-2.3c-1.7-1.9-2-3.7-1.8-9.9c0.1-4.2-0.3-8.6-0.9-9.7c-1.2-2.2,0.5-10.7,2.1-10.7c0.5,0,2,1.3,3.5,2.8c3.1,3.3,6.1,5,14.1,7.8c6.3,2.2,8.7,2.1,8.7-0.4c0-0.8,0.9-1.5,1.9-1.5c1.1,0.1,1.4,0.3,0.5,0.6c-0.7,0.3-1.4,1.3-1.4,2.1c0,1.8,3.1,6.9,4.2,6.9c1.2,0,0.5-16.8-0.8-19.3c-2.1-4-0.6-4.5,6.6-2.4c12.3,3.6,47.9,12.9,60.6,15.8c6.9,1.6,12.6,3,12.8,3.1c0.2,0.1-0.7,3.4-1.9,7.2c-3,9.6-10.9,46.8-10.9,51.5C14,190.9,14.2,190.9-1.2,186.7L-1.2,186.7z"
     class="area"
     title="Washington"
     style="fill:#bebebe;fill-opacity:0.74509805;stroke:url(#linearGradient4238)" /><path
     id="US-TX"
     d="M210.1,433.4l22.7,1.1l31.1,1.1l-2.3,23.5l-0.3,18.2l0.1,2.1l4.3,3.8l1.7,0.8l1.8,0.3l0.7-1.3l0.9,0.9l1.7,0.5l1.6-0.7l1.1,0.4l-0.3,3.4l4.3,1l2.7,0.8l4,0.5l2.2,1.8l3.2-1.6l2.8,0.4l2,2.8l1.1,0.3l-0.2,2l3.1,1.2l2.8-1.8l1.5,0.4l2.4,0.2l0.4,1.9l4.6,2l2.7-0.2l2-4.1h0.3l1.1,1.9l4.4,1l3.3,1.2l3.3,0.8l2.1-0.8l0.8-2.5h3.7l1.9,0.8l3.1-1.6h0.7l0.4,1.1h4.3l2.4-1.3l1.7,0.3l1.4,1.9l2.9,1.7l3.5,1.1l2.7,1.4l2.4,1.6l3.3-0.9l1.9,1l0.5,10.1l0.3,9.7l0.7,9.5l0.5,4l2.7,4.6l1.1,4.1l3.9,6.3l0.5,2.9l0.5,1l-0.7,7.5l-2.7,4.4l1,2.9l-0.4,2.5l-0.8,7.3l-1.4,2.7l0.6,4.4l-5.7,1.6l-9.9,4.5l-1,1.9l-2.6,1.9l-2.1,1.5l-1.3,0.8l-5.7,5.3l-2.7,2.1l-5.3,3.2l-5.7,2.4l-6.3,3.4l-1.8,1.5l-5.8,3.6l-3.4,0.6l-3.9,5.5l-4,0.3l-1,1.9l2.3,1.9l-1.5,5.5l-1.3,4.5l-1.1,3.9l-0.8,4.5l0.8,2.4l1.8,7l1,6.1l1.8,2.7l-1,1.5l-3.1,1.9l-5.7-3.9l-5.5-1.1l-1.3,0.5l-3.2-0.6l-4.2-3.1l-5.2-1.1l-7.6-3.4l-2.1-3.9l-1.3-6.5l-3.2-1.9l-0.6-2.3l0.6-0.6l0.3-3.4l-1.3-0.6l-0.6-1l1.3-4.4l-1.6-2.3l-3.2-1.3l-3.4-4.4l-3.6-6.6l-4.2-2.6l0.2-1.9l-5.3-12.3l-0.8-4.2l-1.8-1.9l-0.2-1.5l-6-5.3l-2.6-3.1v-1.1l-2.6-2.1l-6.8-1.1l-7.4-0.6l-3.1-2.3l-4.5,1.8l-3.6,1.5l-2.3,3.2l-1,3.7l-4.4,6.1l-2.4,2.4l-2.6-1l-1.8-1.1l-1.9-0.6l-3.9-2.3v-0.6l-1.8-1.9l-5.2-2.1l-7.4-7.8l-2.3-4.7v-8.1l-3.2-6.5l-0.5-2.7l-1.6-1l-1.1-2.1l-5-2.1l-1.3-1.6l-7.1-7.9l-1.3-3.2l-4.7-2.3l-1.5-4.4l-2.6-2.9l-1.9-0.5l-0.6-4.7l8,0.7l29,2.7l29,1.6l2.3-23.8l3.9-55.6l1.6-18.7l1.4,0 M310.2,667.3l-0.6-7.1l-2.7-7.2l-0.6-7l1.5-8.2l3.3-6.9l3.5-5.4l3.2-3.6l0.6,0.2l-4.8,6.6l-4.4,6.5l-2,6.6l-0.3,5.2l0.9,6.1l2.6,7.2l0.5,5.2l0.2,1.5L310.2,667.3L310.2,667.3z"
     class="area"
     title="Texas"
     style="fill:#bebebe;fill-opacity:0.74509805;stroke:url(#linearGradient4236)" /><path
     id="US-CA"
     d="M-10.3,486.8l3.8-0.5l1.5-2l0.7-1.9l-3.2-0.1l-1.1-1.8l0.8-1.7l0-6.2l2.2-1.3l2.7-2.6l0.4-4.9l1.6-3.5l1.9-2.1l3.3-1.7l1.3-0.7l0.8-1.5l-0.9-0.9l-1-1.5l-0.9-5.3l-2.9-5.2l0.1-2.8l-2.2-3.2l-15-23.2l-19.4-28.7l-22.4-33l-12.7-19.5l1.8-7.2l6.8-25.9l8.1-31.4l-12.4-3.3l-13.5-3.4l-12.6-4.1l-7.5-2.1l-11.4-3l-7.1-2.4l-1.6,4.7l-0.2,7.4l-5.2,11.8l-3.1,2.6l-0.3,1.1l-1.8,0.8l-1.5,4.2l-0.8,3.2l2.7,4.2l1.6,4.2l1.1,3.6l-0.3,6.5l-1.8,3.1l-0.6,5.8l-1,3.7l1.8,3.9l2.7,4.5l2.3,4.8l1.3,4l-0.3,3.2l-0.3,0.5v2.1l5.7,6.3l-0.5,2.4l-0.6,2.3l-0.6,1.9l0.2,8.2l2.1,3.7l1.9,2.6l2.7,0.5l1,2.7l-1.1,3.6l-2.1,1.6h-1.1l-0.8,3.9l0.5,2.9l3.2,4.4l1.6,5.3l1.5,4.7l1.3,3.1l3.4,5.8l1.5,2.6l0.5,2.9l1.6,1v2.4l-0.8,1.9l-1.8,7.1l-0.5,1.9l2.4,2.7l4.2,0.5l4.5,1.8l3.9,2.1h2.9l2.9,3.1l2.6,4.8l1.1,2.3l3.9,2.1l4.8,0.8l1.5,2.1l0.6,3.2l-1.5,0.6l0.3,1l3.2,0.8l2.7,0.2l2.9,4.7l3.9,4.2l0.8,2.3l2.6,4.2l0.3,3.2v9.4l0.5,1.8l10,1.5l19.7,2.7L-10.3,486.8z M-98.2,437l1.3,1.5l-0.2,1.3l-3.2-0.1l-0.6-1.2l-0.6-1.5L-98.2,437z M-96.3,437l1.2-0.6l3.6,2.1l3.1,1.2l-0.9,0.6l-4.5-0.2l-1.6-1.6L-96.3,437z M-75.6,456.8l1.8,2.3l0.8,1l1.5,0.6l0.6-1.5l-1-1.8l-2.7-2l-1.1,0.2V456.8z M-77,465.5l1.8,3.2l1.2,1.9l-1.5,0.2l-1.3-1.2c0,0-0.7-1.5-0.7-1.9s0-2.2,0-2.2L-77,465.5z"
     class="area"
     title="California"
     style="fill:#bebebe;fill-opacity:0.74509805;stroke:url(#linearGradient4234)" /><path
     id="US-AZ"
     d="M-9.3,487.5l-2.6,2.2l-0.3,1.5l0.5,1l18.9,10.7l12.1,7.6l14.7,8.6l16.8,10l12.3,2.4l25.1,2.7l2.5-12.5l3.8-27.2l7-52.9l4.3-31l-24.6-3.7L54,402.2l-33.4-6.3L17.6,414l-0.5,0.5l-1.7,2.6l-2.5-0.1l-1.3-2.7l-2.7-0.3L8,412.7H7.1l-0.9,0.6l-1.9,1l-0.1,7L3.9,423l-0.6,12.6l-1.5,2.2l-0.6,3.3L4,446l1.3,5.8l0.8,1l1,0.6L7,455.7l-1.6,1.4l-3.4,1.7L0,460.8l-1.5,3.7l-0.6,4.9l-2.9,2.7l-2.1,0.7l-0.1,5.8l-0.5,1.7l0.5,0.8l3.7,0.6l-0.6,2.7l-1.5,2.2L-9.3,487.5z"
     class="area"
     title="Arizona"
     style="fill:#bebebe;fill-opacity:0.74509805;stroke:url(#linearGradient4232)" /><path
     id="US-NV"
     d="M-6.3,277.6l21,4.5l9.7,1.9l9.3,1.8l6.6,1.6l-0.6,5.9l-3.5,17.3l-4.1,20l-1.9,9.7l-2.2,13.3l-3.2,16.4l-3.5,15.7l-2,10.2l-2.5,16.8l-0.5,1.1l-1.1,2.5l-1.9-0.1l-1.1-2.7l-2.7-0.5l-1.4-1l-2,0.3L5.2,413l-1.3,1.3l-0.4,7L2.9,423l-0.4,12.1l-1.3,1.7l-1.9-2.3l-14.5-22.7l-19.4-29L-57.4,349l-12.4-18.6l1.6-6.6l7-25.9l7.9-31.3l33.6,8.1l13.7,3"
     class="area"
     title="Nevada"
     style="fill:#bebebe;fill-opacity:0.74509805;stroke:url(#linearGradient4230)" /><path
     id="US-UT"
     d="M106,409.3l-24.6-3.5l-26.6-4.9l-33.8-6l1.6-9.2l3.2-15.2L29,354l2.2-13.6l1.9-8.9l3.8-20.5l3.5-17.5l1.1-5.6l12.7,2.3l12,2.1l10.3,1.8l8.3,1.4l3.7,0.5l-1.5,10.6l-2.3,13.2l7.8,0.9l16.4,1.8l8.2,0.9l-2.1,22l-3.2,22.6l-3.8,27.8l-1.7,11.1L106,409.3z"
     class="area"
     title="Utah"
     style="fill:#bebebe;fill-opacity:0.74509805;stroke:url(#linearGradient4228)" /><path
     id="US-CO"
     d="M231.6,356.8l1.4-21.3l-32.1-3.1l-24.5-2.7l-37.3-4.1l-20.7-2.5l-2.6,22.2l-3.2,22.4l-3.8,28l-1.5,11.1l-0.3,2.8l33.9,3.8l37.7,4.3l32,3.2l16.6,0.8"
     class="area"
     title="Colorada"
     style="fill:#bebebe;fill-opacity:0.74509805;stroke:url(#linearGradient4226)" /><path
     id="US-NM"
     d="M135.7,531l-0.7-6.1l8.6,0.5l29.5,3.1l28.4,1.4l2-22.3l3.7-55.9l1.1-19.4l2,0.3l0-11.1l-32.2-2.4l-36.9-4.4l-34.5-4.1l-4.2,30.8l-7,53.2l-3.8,26.9l-2,13.3l15.5,2l1.3-10l16.7,2.6L135.7,531z"
     class="area"
     title="New Mexico"
     style="fill:#bebebe;fill-opacity:0.74509805;stroke:url(#linearGradient4224)" /><path
     id="US-OR"
     d="M-6.7,276.7l4.3-17.9l4.7-17.9l1.1-4.2l2.4-5.6l-0.6-1.2l-2.5,0l-1.3-1.7l0.5-1.5l0.5-3.2l4.5-5.5l1.8-1.1l1.1-1.1l1.5-3.6l4-5.7l3.6-3.9l0.2-3.5l-3.3-2.5l-1.2-4.5l-13.2-3.7l-15.1-3.5l-15.4,0.1l-0.5-1.4l-5.5,2.1l-4.5-0.6l-2.4-1.6l-1.3,0.7L-48,184l-1.7-1.4l-5.3-2.1l-0.8,0.1l-4.3-1.5l-1.9,1.8l-6.2-0.3l-5.9-4.1l0.7-0.8l0.2-7.8l-2.3-3.9l-4.1-0.6l-0.7-2.5l-2.4-0.5l-5.8,2.1l-2.3,6.5l-3.2,10l-3.2,6.5l-5,14.1l-6.5,13.6l-8.1,12.6l-1.9,2.9l-0.8,8.6l-1.3,6l2.7,3.5l6.7,2.3l11.6,3.3l7.9,2.5l12.4,3.6l13.3,3.6l13.2,3.6"
     class="area"
     title="Oregon"
     style="fill:#bebebe;fill-opacity:0.74509805;stroke:url(#linearGradient4222)" /><path
     id="US-ND"
     d="M324.3,227.7l-0.4-7.5l-2-7.3l-1.8-13.6l-0.5-9.8l-2-3.1l-1.6-5.4v-10.3l0.7-3.9l-2.1-5.5l-28.4-0.6l-18.6-0.6l-26.5-1.3l-24.9-1.9l-1.3,14.2l-1.4,15.1l-2.3,24.9l-0.5,11l56.8,3.8L324.3,227.7z"
     class="area"
     title="North Dakota"
     style="fill:#bebebe;fill-opacity:0.74509805;stroke:url(#linearGradient4220)" /><path
     id="US-SD"
     d="M325.8,303.2l-1-1.1l-1.5-3.6l1.8-3.7l1.1-5.6l-2.6-2.1l-0.3-2.7l0.6-3l2.1-0.8l0.3-5.7l-0.1-30.1l-0.6-3l-4.1-3.6l-1-2v-1.9l1.9-1.3l1.5-1.9l0.2-2.7l-57.4-1.6l-56.2-3.9l-0.8,5.3l-1.6,15.9l-1.3,17.9l-1.6,24.6l16,1l19.6,1.1l18,1.3l23.8,1.3l10.7-0.8l2.9,2.3l4.3,3l1,0.8l3.5-0.9l4-0.3l2.7-0.1l3.1,1.2l4.5,1.4l3.1,1.8l0.6,1.9l0.9,1.9l0.7-0.5L325.8,303.2z"
     class="area"
     title="South Dakota"
     style="fill:#bebebe;fill-opacity:0.74509805;stroke:url(#linearGradient4218)" /><path
     id="US-NE"
     d="M337.2,347l1.4,2.7l0.1,2.1l2.4,3.7l2.7,3.2h-5l-43.5-0.9l-40.8-0.9l-21.2-1l1.1-21.3l-33.4-2.7l4.3-44l15.5,1L241,290l17.8,1.1l23.8,1.1l10.7-0.5l2.1,2.3l4.8,3l1.1,0.9l4.3-1.4l3.9-0.5l2.7-0.2l1.8,1.4l5,1.6l3,1.6l0.5,1.6l0.9,2.1h1.8l0.8,0l1,5.2l2.7,8l1.2,4.6l2.1,3.8l0.5,4.9l1.4,4.3l0.5,6.5"
     class="area"
     title="Nebraska"
     style="fill:#bebebe;fill-opacity:0.74509805;stroke:url(#linearGradient4216)" /><path
     id="US-IA"
     d="M419.6,301.6l0.2,1.9l2.3,1.1l1.1,1.3l0.3,1.3l3.9,3.2l0.7,2.2l-0.8,2.9l-1.5,3.5l-0.8,2.7l-2.2,1.6l-1.7,0.6l-5.5,1.5l-0.7,2.3l-0.8,2.3l0.6,1.4l1.7,1.7l0,3.7l-2.2,1.6l-0.5,1.5v2.5l-1.5,0.5l-1.7,1.4l-0.5,1.5l0.5,1.7l-1.4,1.2l-2.3-2.7l-1.5-2.6l-8.3,0.8l-10.2,0.6l-25,0.7l-13,0.2l-9.4,0.2l-1.3,0.1l-1.7-4.5l-0.2-6.6l-1.6-4.1l-0.7-5.3l-2.3-3.7l-0.9-4.8l-2.7-7.5l-1.1-5.4l-1.4-2.2l-1.6-2.7l1.8-4.3l1.4-5.7l-2.7-2.1l-0.5-2.7l0.9-2.5h1.7h11.5l49.6-0.7l19.9-0.7l1.9,2.7l1.8,2.6l0.5,0.8l-1.8,2.7l0.5,4.2l2.5,3.9l3,1.8l2.4,0.2L419.6,301.6z"
     class="area"
     title="Iowa"
     style="fill:#bebebe;fill-opacity:0.74509805;stroke:url(#linearGradient4214)" /><path
     id="US-MS"
     d="M477.6,567l-0.3,1.3h-5.2l-1.5-0.8l-2.1-0.3l-6.8,1.9l-1.8-0.8l-2.6,4.2l-1.1,0.8l-1.1-2.5l-1.1-3.9l-3.4-3.2l1.1-7.5l-0.7-0.9l-1.8,0.2l-8.2,0.7l-24.2,0.7l-0.5-1.6l0.7-8l3.4-6.2l5.3-9.1l-0.9-2.1h1.1l0.7-3.2l-2.3-1.8l0.2-1.8l-2.1-4.6l-0.3-5.3l1.4-2.7l-0.4-4.3l-1.4-3l1.4-1.4l-1.4-2.1l0.5-1.8l0.9-6.2l3-2.7l-0.7-2.1l3.7-5.3l2.7-0.9v-2.5l-0.7-1.4l2.7-5.3l2.7-1.1l0.1-3.4l8.7-0.1l24.1-1.9l4.6-0.2l0,6.4l0.2,16.7l-0.8,31l-0.2,14.1l2.7,18.8L477.6,567z"
     class="area"
     title="Mississippi"
     style="fill:#bebebe;fill-opacity:0.74509805;stroke:url(#linearGradient4212)" /><path
     id="US-IN"
     d="M471.4,400.9l0.1-2.9l0.5-4.5l2.3-2.9l1.8-3.9l2.6-4.2l-0.5-5.8l-1.8-2.7l-0.3-3.2l0.8-5.5l-0.5-7l-1.3-16l-1.3-15.4l-1-11.7l3.1,0.9l1.5,1l1.1-0.3l2.1-1.9l2.8-1.6l5.1-0.2l22-2.3l5.6-0.5l1.5,16l4.3,36.8l0.6,5.8L522,371l1.2,1.8l0.1,1.4l-2.5,1.6l-3.5,1.6l-3.2,0.6l-0.6,4.9l-4.6,3.3l-2.8,4l0.3,2.4l-0.6,1.5h-3.3l-1.6-1.6l-2.5,1.3l-2.7,1.5l0.2,3.1l-1.2,0.3l-0.5-1l-2.2-1.5l-3.3,1.3l-1.6,3l-1.4-0.8l-1.5-1.6l-4.5,0.5l-5.6,1L471.4,400.9z"
     class="area"
     title="Indiana"
     style="fill:#bebebe;fill-opacity:0.74509805;stroke:url(#linearGradient4210)" /><path
     id="US-IL"
     d="M470.8,401.6V398l0.3-4.9l2.4-3.1l1.8-3.8l2.6-3.9l-0.4-5.3l-2-3.5l-0.1-3.3l0.7-5.3l-0.8-7.2l-1.1-15.8l-1.3-15l-0.9-11.6l-0.3-0.9l-0.8-2.6l-1.3-3.7l-1.6-1.8l-1.5-2.6l-0.2-5.5l-9.9,1.3l-27.2,1.7l-8.7-0.4l0.2,2.4l2.3,0.7l0.9,1.1l0.5,1.8l3.9,3.4l0.7,2.3l-0.7,3.4l-1.8,3.7l-0.7,2.5l-2.3,1.8l-1.8,0.7l-5.3,1.4l-0.7,1.8L415,330l0.7,1.4l1.8,1.6l-0.2,4.1l-1.8,1.6l-0.7,1.6v2.7l-1.8,0.5l-1.6,1.1l-0.2,1.4l0.2,2.1l-1.7,1.3l-1,2.8l0.5,3.7l2.3,7.3l7.3,7.5l5.5,3.7l-0.2,4.3l0.9,1.4l6.4,0.5l2.7,1.4l-0.7,3.7l-2.3,5.9l-0.7,3.2l2.3,3.9l6.4,5.3l4.6,0.7l2.1,5l2.1,3.2l-0.9,3l1.6,4.1l1.8,2.1l1.9-0.8l0.7-2.2l2-1.4l3.2-1.1l3.1,1.2l2.9,1.1l0.8-0.2l-0.1-1.2l-1.1-2.8l0.4-2.4l2.3-1.6l2.4-1l1.2-0.4l-0.6-1.3l-0.8-2.2l1.2-1.3L470.8,401.6z"
     class="area"
     title="Illinois"
     style="fill:#bebebe;fill-opacity:0.74509805;stroke:url(#linearGradient4208)" /><path
     id="US-MN"
     d="M324.9,228.5l-0.5-8.5l-1.8-7.3l-1.8-13.5l-0.5-9.8l-1.8-3.4l-1.6-5v-10.3l0.7-3.9l-1.8-5.5l30.1,0l0.3-8.2l0.6-0.2l2.3,0.5l1.9,0.8l0.8,5.5l1.5,6.1l1.6,1.6h4.8l0.3,1.5l6.3,0.3v2.1h4.8l0.3-1.3l1.1-1.1l2.3-0.6l1.3,1h2.9l3.9,2.6l5.3,2.4l2.4,0.5l0.5-1l1.5-0.5l0.5,2.9l2.6,1.3l0.5-0.5l1.3,0.2v2.1l2.6,1h3.1l1.6-0.8l3.2-3.2l2.6-0.5l0.8,1.8l0.5,1.3h1l1-0.8l8.9-0.3l1.8,3.1h0.6l0.7-1.1l4.4-0.4l-0.6,2.3l-3.9,1.8l-9.2,4.1l-4.8,2l-3.1,2.6l-2.4,3.6l-2.3,3.9l-1.8,0.8l-4.5,5l-1.3,0.2l-3.8,2.9l-2.8,3.2l-0.2,3l0.2,7.8l-1.6,1.6L383,228l-1.8,5.7l2.5,3.6l0.5,2.5l-1.1,3l-0.2,3.7l0.5,7.1l3.4,4.1h3l2.5,2.3l3.2,1.4l3.7,5l7.1,5l1.8,2.1l0.2,5.5l-20.6,0.7l-60.2,0.5l-0.3-35.7l-0.5-3l-4.1-3.4l-1.1-1.8v-1.6l2.1-1.6l1.4-1.4L324.9,228.5z"
     class="area"
     title="Minnesota"
     style="fill:#bebebe;fill-opacity:0.74509805;stroke:url(#linearGradient4206)" /><path
     id="US-WI"
     d="M465.9,297.2l0.4-3l-1.6-4.5l-0.6-6.1l-1.1-2.4l1-3.1l0.8-2.9l1.5-2.6l-0.6-3.4l-0.6-3.6l0.5-1.8l1.9-2.4l0.2-2.7l-0.8-1.3l0.6-2.6l0.5-3.2l2.7-5.7l2.9-6.8l0.2-2.3l-0.3-1l-0.8,0.5l-4.2,6.3l-2.7,4l-1.9,1.8l-0.8,2.3l-1.5,0.8l-1.1,1.9l-1.5-0.3l-0.2-1.8l1.3-2.4l2.1-4.7l1.8-1.6l1.1-2.3l-1.6-0.9l-1.4-1.4l-1.6-10.3l-3.7-1.1l-1.4-2.3l-12.6-2.7l-2.5-1.1l-8.2-2.3l-8.2-1.1l-4.2-5.4l-0.5,1.3l-1.1-0.2l-0.6-1.1l-2.7-0.8l-1.1,0.2l-1.8,1l-1-0.6l0.6-1.9l1.9-3.1l1.1-1.1l-1.9-1.5l-2.1,0.8l-2.9,1.9l-7.4,3.2l-2.9,0.6l-2.9-0.5l-1-0.9l-2.1,2.8l-0.2,2.7v8.5l-1.1,1.6l-5.3,3.9l-2.3,5.9l0.5,0.2l2.5,2.1l0.7,3.2l-1.8,3.2v3.9l0.5,6.6l3,3h3.4l1.8,3.2l3.4,0.5l3.9,5.7l7.1,4.1l2.1,2.7l0.9,7.4l0.7,3.3l2.3,1.6l0.2,1.4l-2.1,3.4l0.2,3.2l2.5,3.9l2.5,1.1l3,0.5l1.3,1.4l9.2,0l26.1-1.5L465.9,297.2z"
     class="area"
     title="Wisconsin"
     style="fill:#bebebe;fill-opacity:0.74509805;stroke:url(#linearGradient4204)" /><path
     id="US-MO"
     d="M408.8,349.5l-2.5-3.1l-1.1-2.3l-7.8,0.7l-9.8,0.5l-25.4,0.9l-13.5,0.2l-7.9,0.1l-2.3,0.1l1.3,2.5l-0.2,2.3l2.5,3.9l3.1,4.1l3.1,2.7l2.3,0.2l1.4,0.9v3l-1.8,1.6l-0.5,2.3l2.1,3.4l2.5,3l2.5,1.8l1.4,11.7l-0.7,35.3l0.2,4.7l0.5,5.4l23.4-0.1l23.2-0.7l20.8-0.8l11.7-0.2l2.2,3.4l-0.7,3.3l-3.1,2.4l-0.6,1.8l5.4,0.5l3.9-0.7l1.7-5.5l0.7-5.9l2.3-2l1.7-1.5l2.1-1l0.1-2.9l0.6-1.7l-1-1.7l-2.7,0.1l-2.2-2.6l-1.4-4.2l0.8-2.5l-1.9-3.4l-1.8-4.6l-4.8-0.8l-7-5.6l-1.7-4.1l0.8-3.2l2.1-6.1l0.5-2.9l-1.9-1l-6.9-0.8l-1-1.7l-0.1-4.2l-5.5-3.4l-7-7.8l-2.3-7.3l-0.2-4.2L408.8,349.5z"
     class="area"
     title="Missouri"
     style="fill:#bebebe;fill-opacity:0.74509805;stroke:url(#linearGradient4202)" /><path
     id="US-AR"
     d="M444,445l-3.8,0.9l-6.2-0.5l0.7-3l3.2-2.7l0.5-2.3l-1.8-3l-11,0.5l-20.8,0.9l-23.3,0.7L358,437l1.6,6.9v8.2l1.4,11l0.2,37.8l2.3,1.9l3-1.4l2.7,1.1l0.4,10.3l22.9-0.1l18.9-0.8l10.1-0.2l1.1-2.1l-0.3-3.5l-1.8-3l1.6-1.5l-1.6-2.5l0.7-2.5l1.4-5.6l2.5-2.1l-0.7-2.3l3.7-5.4l2.7-1.4l-0.1-1.5l-0.3-1.8l2.9-5.6l2.4-1.3l0.4-3.4l1.8-1.2l0.9-4.2l-1.3-4l4-2.4l0.6-2l1.2-4.3L444,445z"
     class="area"
     title="Arkansas"
     style="fill:#bebebe;fill-opacity:0.74509805;stroke:url(#linearGradient4200)" /><path
     id="US-OK"
     d="M228.3,422.6l-10.7-0.5l-6.4-0.5l0.3,0.2l-0.7,10.4l22,1.4l32.1,1.3l-2.3,24.4l-0.5,17.8l0.2,1.6l4.3,3.7l2.1,1.1l0.7-0.2l0.7-2.1l1.4,1.8h2.1v-1.4l2.7,1.4l-0.5,3.9l4.1,0.2l2.5,1.1l4.1,0.7l2.5,1.8l2.3-2.1l3.4,0.7l2.5,3.4h0.9v2.3l2.3,0.7l2.3-2.3l1.8,0.7h2.5l0.9,2.5l4.8,1.8l1.4-0.7l1.8-4.1h1.1l1.1,2.1l4.1,0.7l3.7,1.4l3,0.9l1.8-0.9l0.7-2.5h4.3l2.1,0.9l2.7-2.1h1.1l0.7,1.6h4.1l1.6-2.1l1.8,0.5l2.1,2.5l3.2,1.8l3.2,0.9l1.9,1.1l-0.4-37.2l-1.4-11l-0.2-8.9l-1.4-6.5l-0.8-7.2l-0.1-3.8l-12.1,0.3l-46.4-0.5l-45-2.1L228.3,422.6z"
     class="area"
     title="Oklahoma"
     style="fill:#bebebe;fill-opacity:0.74509805;stroke:url(#linearGradient4198)" /><path
     id="US-KS"
     d="M356.4,425.1l-12.6,0.2l-46.1-0.5l-44.6-2.1l-24.6-1.3l4.1-64.7l21.8,0.8l40.5,1.4l44.1,0.5h5.1l3.2,3.2l2.8,0.2l0.9,1.1v2l-1.8,1.6l-0.5,2.6l2.2,3.6l2.5,3.1l2.5,2l1.1,11.2L356.4,425.1z"
     class="area"
     title="Kansas"
     style="fill:#bebebe;fill-opacity:0.74509805;stroke:url(#linearGradient4196)" /><path
     id="US-LA"
     d="M455.2,573l-1-2.6l-1.1-3.1l-3.3-3.5l0.9-6.8l-0.1-1.1l-1.3,0.3l-8.2,0.9l-25,0.5l-0.7-2.4l0.9-8.5l3.3-5.9l5-8.7l-0.6-2.4l1.3-0.7l0.5-2l-2.3-2.1l-0.1-1.9l-1.8-4.3l-0.5-5.9l-9.7,0.1l-19.2,0.9l-22.2,0l0,9.6l0.7,9.4l0.7,3.9l2.5,4.1l0.9,5l4.3,5.5l0.2,3.2l0.7,0.7l-0.7,8.5l-3,5l1.6,2.1l-0.7,2.5l-0.7,7.3l-1.4,3.2l0.1,3.6l4.7-1.5l8.1-0.3l10.3,3.6l6.5,1.1l3.7-1.5l3.2,1.1l3.2,1l0.8-2.1l-3.2-1.1l-2.6,0.5l-2.7-1.6c0,0,0.2-1.3,0.8-1.5c0.6-0.2,3.1-1,3.1-1l1.8,1.5l1.8-1l3.2,0.6l1.5,2.4l0.3,2.3l4.5,0.3l1.8,1.8l-0.8,1.6l-1.3,0.8l1.6,1.6l8.4,3.6l3.6-1.3l1-2.4l2.6-0.6l1.8-1.5l1.3,1l0.8,2.9l-2.3,0.8l0.6,0.6l3.4-1.3l2.3-3.4l0.8-0.5l-2.1-0.3l0.8-1.6l-0.2-1.5l2.1-0.5l1.1-1.3l0.6,0.8c0,0-0.2,3.1,0.6,3.1c0.8,0,4.2,0.6,4.2,0.6l4,1.9l1,1.5h2.9l1.1,1l2.3-3.1v-1.5h-1.3l-3.4-2.7l-5.8-0.8l-3.2-2.3l1.1-2.7l2.3,0.3l0.2-0.6l-1.8-1v-0.5h3.2l1.8-3.1l-1.3-1.9l-0.3-2.7l-1.5,0.2l-1.9,2.1l-0.6,2.6l-3.1-0.6l-1-1.8l1.8-1.9l2-1.8L455.2,573z"
     class="area"
     title="Louisiana"
     style="fill:#bebebe;fill-opacity:0.74509805;stroke:url(#linearGradient4194)" /><path
     id="US-VA"
     d="M681.9,369.3l-0.1-1.9l6.5-2.5l-0.8,3.2l-2.9,3.8l-0.4,4.6l0.5,3.4l-1.8,5l-2.2,1.9l-1.5-4.6l0.4-5.4l1.6-4.2L681.9,369.3z M684.2,397.6L626,410.1l-37.4,5.3l-6.7-0.4l-2.6,1.9l-7.3,0.2l-8.4,1l-8.9,1l8.5-4.9l0-2.1l1.5-2.1l10.6-11.5l3.9,4.5l3.8,1l2.5-1.1l2.2-1.3l2.5,1.3l3.9-1.4l1.9-4.6l2.6,0.5l2.9-2.1l1.8,0.5l2.8-3.7l0.3-2.1l-1-1.3l1-1.9l5.3-12.3l0.6-5.7l1.2-0.5l2.2,2.4l3.9-0.3l1.9-7.6l2.8-0.6l1-2.7l2.6-2.3l1.3-2.3l1.5-3.4l0.1-5.1l9.8,3.8c0.7,0.3,0.7-4.8,0.7-4.8l4.1,1.4l-0.5,2.6l8.2,2.9l1.3,1.8l-0.9,3.7l-1.3,1.3l-0.5,1.7l0.5,2.4l2,1.3l3.9,1.4l2.9,1l4.9,0.9l2.2,2.1l3.2,0.4l0.9,1.2l-0.4,4.7l1.4,1.1l-0.5,1.9l1.2,0.8l-0.2,1.4l-2.7-0.1l0.1,1.6l2.3,1.5l0.1,1.4l1.8,1.8l0.5,2.5l-2.6,1.4l1.6,1.5l5.8-1.7L684.2,397.6z"
     class="area"
     title="Virginia"
     style="fill:#bebebe;fill-opacity:0.74509805;stroke:url(#linearGradient4192)" /><path
     id="US-DC"
     d="M654.8,353.8l-1.1-1.6l-1-0.8l1.1-1.6l2.2,1.5L654.8,353.8z"
     class="area active"
     title="Columbia"
     style="fill:#bebebe;fill-opacity:0.74509805;stroke:url(#linearGradient4190)" /></svg>